<svg id="Calque_1" data-name="Calque 1" xmlns="http://www.w3.org/2000/svg" viewBox="0 0 297.26 114.38"><defs><style>.cls-1{fill:#ffde00;stroke:#1d1d1b;stroke-width:0.5px;}.cls-1,.cls-3,.cls-4{stroke-miterlimit:10;}.cls-2{fill:#fff;}.cls-3,.cls-4{fill:none;}.cls-3{stroke:#fff;stroke-width:4px;}.cls-4{stroke:#e5c509;stroke-width:3px;}</style></defs><path class="cls-1" d="M110.59,357.33l11.76,79.05h-21l-1.11-14.21H92.88l-1.24,14.21H70.39l10.49-79.05Zm-10.9,50.83Q98.13,394.72,96.56,375q-3.14,22.71-3.94,33.21Z" transform="translate(-57.04 -335.7)"/><rect class="cls-2" x="159.92" y="32.63" width="20.31" height="64.79"/><rect class="cls-1" x="101.09" y="20.72" width="20.31" height="79.05"/><rect class="cls-1" x="70.19" y="20.72" width="20.31" height="79.05"/><path class="cls-2" d="M212.48,394.88H193.87v-7.47a14.76,14.76,0,0,0-.63-5.3,2.35,2.35,0,0,0-2.35-1.39,2.28,2.28,0,0,0-2.29,1.22q-.58,1.21-.59,5.47V418a12,12,0,0,0,.88,5.2,2.79,2.79,0,0,0,2.59,1.74,2.68,2.68,0,0,0,2.71-1.81c.47-1.21.71-3.48.71-6.84v-7.71h17.58a101,101,0,0,1-.57,11.64,18.63,18.63,0,0,1-3.27,8,17.44,17.44,0,0,1-7.2,6.15,25.78,25.78,0,0,1-11,2.08q-8.34,0-13.23-2.86a15.74,15.74,0,0,1-6.91-8q-2-5.16-2-14.63V392.48q0-8.25,1.66-12.45t7.08-7.49a24.86,24.86,0,0,1,13.18-3.3,25.22,25.22,0,0,1,13.18,3.27,16.06,16.06,0,0,1,7.28,8.25Q212.47,385.76,212.48,394.88Z" transform="translate(-57.04 -335.7)"/><path class="cls-2" d="M263,366.33l-.34,6a14.77,14.77,0,0,1,5.25-5.36,14.05,14.05,0,0,1,7.15-1.78,13.59,13.59,0,0,1,8.3,2.39,10.67,10.67,0,0,1,4.15,6q.93,3.65.93,12.13v45.41H268.69V386.25c0-4.46-.14-7.18-.44-8.15s-1.1-1.47-2.44-1.47a2.42,2.42,0,0,0-2.63,1.69q-.54,1.68-.54,9v43.79H242.91V366.33Z" transform="translate(-57.04 -335.7)"/><path class="cls-2" d="M338.81,403.05H313.27v14q0,4.4.63,5.67a2.49,2.49,0,0,0,2.44,1.27,3,3,0,0,0,3-1.69q.75-1.68.75-6.52v-8.54h18.71V412a43.1,43.1,0,0,1-.76,9.23,19,19,0,0,1-3.54,6.89,17.27,17.27,0,0,1-7.06,5.49,27.33,27.33,0,0,1-10.72,1.83,31,31,0,0,1-11-1.81,17.66,17.66,0,0,1-7.45-5,17.88,17.88,0,0,1-3.68-6.94,44.37,44.37,0,0,1-1-11V391.87q0-8.5,2.3-13.41a15.78,15.78,0,0,1,7.52-7.52,26.5,26.5,0,0,1,12-2.61q8.29,0,13.69,3.15a17.31,17.31,0,0,1,7.57,8.35q2.17,5.21,2.18,14.62Zm-6-51.12-16.07,13.23h-9.91l8.6-13.23ZM319,392.5v-4.73c0-3.36-.18-5.52-.54-6.5a2.11,2.11,0,0,0-2.19-1.46c-1.37,0-2.22.41-2.54,1.24s-.49,3.07-.49,6.72v4.73Z" transform="translate(-57.04 -335.7)"/><path class="cls-2" d="M217.1,349.46h7.46v-7.34h5.07v7.34h7.51v5h-7.51v7.3h-5.07v-7.3H217.1Z" transform="translate(-57.04 -335.7)"/><rect class="cls-3" x="2" y="4.02" width="291.24" height="108.36" rx="11.16"/><rect class="cls-4" x="5.24" y="1.5" width="290.52" height="108.36" rx="20.49"/></svg>