<svg id="Calque_1" data-name="Calque 1" xmlns="http://www.w3.org/2000/svg" viewBox="0 0 208.07 128.32"><defs><style>.cls-1{fill:#ffde00;stroke:#1d1d1b;stroke-width:0.5px;}.cls-1,.cls-3{stroke-miterlimit:10;}.cls-2,.cls-3{fill:#29235c;}.cls-3{stroke:#fff;stroke-width:3px;}.cls-4{fill:#fff;}</style></defs><path class="cls-1" d="M140.32,356.45l11.75,79.05h-21L130,421.29h-7.35l-1.24,14.21H100.12l10.48-79.05Zm-10.9,50.83q-1.56-13.44-3.13-33.21-3.14,22.71-3.94,33.21Z" transform="translate(-99.83 -356.17)"/><rect class="cls-2" x="85.81" y="60.86" width="20.31" height="64.79"/><rect class="cls-1" x="85.81" y="0.28" width="20.31" height="79.05"/><rect class="cls-1" x="55.93" y="0.25" width="20.31" height="79.05"/><path class="cls-3" d="M181.58,441.49H163V434a14.47,14.47,0,0,0-.64-5.3,2.33,2.33,0,0,0-2.34-1.39,2.29,2.29,0,0,0-2.3,1.22q-.58,1.21-.58,5.47v30.56a11.85,11.85,0,0,0,.88,5.2,2.77,2.77,0,0,0,2.58,1.74,2.67,2.67,0,0,0,2.71-1.81c.48-1.21.71-3.48.71-6.84v-7.71h17.58A101.51,101.51,0,0,1,181,466.8a18.63,18.63,0,0,1-3.27,8,17.54,17.54,0,0,1-7.2,6.16,26,26,0,0,1-11,2.07q-8.35,0-13.23-2.86a15.69,15.69,0,0,1-6.91-8q-2-5.16-2-14.63V439.09q0-8.25,1.66-12.45t7.08-7.49a24.89,24.89,0,0,1,13.18-3.3,25.25,25.25,0,0,1,13.19,3.27,16,16,0,0,1,7.27,8.26Q181.58,432.36,181.58,441.49Z" transform="translate(-99.83 -356.17)"/><path class="cls-3" d="M231.3,417l-.34,6a14.73,14.73,0,0,1,5.25-5.35,14.06,14.06,0,0,1,7.15-1.79,13.59,13.59,0,0,1,8.3,2.39,10.67,10.67,0,0,1,4.15,6q.93,3.64.93,12.14v45.41H237V437c0-4.46-.14-7.18-.44-8.16s-1.1-1.46-2.44-1.46A2.43,2.43,0,0,0,231.5,429c-.36,1.12-.54,4.13-.54,9v43.8H211.23V417Z" transform="translate(-99.83 -356.17)"/><path class="cls-3" d="M306.41,450.57H280.87v14q0,4.4.63,5.67a2.49,2.49,0,0,0,2.44,1.27,3,3,0,0,0,3-1.69q.75-1.68.75-6.52v-8.54h18.71v4.78a43.1,43.1,0,0,1-.76,9.23,19,19,0,0,1-3.54,6.89,17.27,17.27,0,0,1-7.06,5.49A27.33,27.33,0,0,1,284.33,483a31,31,0,0,1-11-1.81,17.66,17.66,0,0,1-7.45-4.95,17.88,17.88,0,0,1-3.68-6.94,44.37,44.37,0,0,1-1-11V439.39q0-8.5,2.3-13.41a15.78,15.78,0,0,1,7.52-7.52,26.5,26.5,0,0,1,12-2.61q8.29,0,13.69,3.15a17.31,17.31,0,0,1,7.57,8.35q2.17,5.2,2.18,14.62Zm-6-51.12-16.07,13.23h-9.91l8.6-13.23ZM286.63,440v-4.73c0-3.36-.18-5.52-.54-6.5a2.11,2.11,0,0,0-2.19-1.46c-1.37,0-2.22.41-2.54,1.24s-.49,3.07-.49,6.72V440Z" transform="translate(-99.83 -356.17)"/><path class="cls-2" d="M185.78,422.47h7.46v-7.34h5.07v7.34h7.51v5h-7.51v7.3h-5.07v-7.3h-7.46Z" transform="translate(-99.83 -356.17)"/><rect class="cls-4" x="58.3" y="72.38" width="3.96" height="7.83"/></svg>